<svg width="25" height="21" viewBox="0 0 25 21" fill="none" xmlns="http://www.w3.org/2000/svg">
<g id="Servings-Icon" clip-path="url(#clip0_11_233)">
<path id="Stroke 2503" d="M20.9021 13.5H23.9021C23.9021 5.5 22.5021 0 21.1211 0H20.9021V20.5" stroke="#E3CDB1" stroke-width="1.5" stroke-linecap="round" stroke-linejoin="round"/>
<path id="Stroke 2504" d="M0.9021 1V5C0.9021 6.657 2.2451 8 3.9021 8C5.5581 8 6.9021 6.657 6.9021 5V1" stroke="#E3CDB1" stroke-width="1.5" stroke-linecap="round" stroke-linejoin="round"/>
<path id="Stroke 2505" d="M3.4021 1V20.5" stroke="#E3CDB1" stroke-width="1.5" stroke-linecap="round" stroke-linejoin="round"/>
<path id="Stroke 2506" fill-rule="evenodd" clip-rule="evenodd" d="M18.9021 14C18.9021 17.59 15.9921 20.5 12.4021 20.5C8.8121 20.5 5.9021 17.59 5.9021 14C5.9021 10.41 8.8121 7.5 12.4021 7.5C15.9921 7.5 18.9021 10.41 18.9021 14V14Z" stroke="#E3CDB1" stroke-width="1.5" stroke-linejoin="round"/>
<path id="Stroke 2507" fill-rule="evenodd" clip-rule="evenodd" d="M12.402 17.4845C12.402 17.4845 15.772 15.0575 15.772 13.2595C15.772 11.1855 13.015 10.5305 12.402 13.0525C11.789 10.5305 9.03198 11.1855 9.03198 13.2595C9.03198 15.0575 12.402 17.4845 12.402 17.4845V17.4845Z" stroke="#E3CDB1" stroke-width="1.5" stroke-linejoin="round"/>
</g>
<defs>
<clipPath id="clip0_11_233">
<rect width="24" height="21" fill="white" transform="translate(0.4021)"/>
</clipPath>
</defs>
</svg>
